PathFileType	4	(X/Y/Z)
DataRate	CameraRate	NumFrames	NumMarkers	Units	OrigDataRate	OrigDataStartFrame	OrigNumFrames	
	120.0	120.0	6	39	mm	120.0	169	225
Frame#	Time	midhip	hip_r	hip_l	knee_r	knee_l	ankle_r	ankle_l	midasis	asis_r	asis_l	psis_r	psis_l	epicondLat_r	epicondLat_l	epicondMed_r	epicondMed_l	malleolusLat_r	malleolusLat_l	malleolusMedv_r	malleolusMedv_l	heel_r	heel_l	sternalnotch	xyphoidprocess	neck	subclavicle_r	subclavicle_l	toe_r	toe_l	thighwand_r	thighwand_l	upperleg1_r	upperleg1_l	upperleg2_r	upperleg2_l	shankwand_r	shankwand_l	lowerleg1_r	lowerleg1_l
	X1	Y1	Z1	X2	Y2	Z2	X3	Y3	Z3	X4	Y4	Z4	X5	Y5	Z5	X6	Y6	Z6	X7	Y7	Z7	X8	Y8	Z8	X9	Y9	Z9	X10	Y10	Z10	X11	Y11	Z11	X12	Y12	Z12	X13	Y13	Z13	X14	Y14	Z14	X15	Y15	Z15	X16	Y16	Z16	X17	Y17	Z17	X18	Y18	Z18	X19	Y19	Z19	X20	Y20	Z20	X21	Y21	Z21	X22	Y22	Z22	X23	Y23	Z23	X24	Y24	Z24	X25	Y25	Z25	X26	Y26	Z26	X27	Y27	Z27	X28	Y28	Z28	X29	Y29	Z29	X30	Y30	Z30	X31	Y31	Z31	X32	Y32	Z32	X33	Y33	Z33	X34	Y34	Z34	X35	Y35	Z35	X36	Y36	Z36	X37	Y37	Z37	X38	Y38	Z38	X39	Y39	Z39

	169	1.40833	711.296	910.117	-274.380	711.883	891.768	-223.349	705.696	894.125	-329.713	703.319	479.160	-200.488	700.623	482.374	-362.990	624.710	69.858	-179.263	655.690	68.626	-357.928	778.566	996.404	-278.296	784.750	994.048	-171.975	772.382	998.761	-384.617	578.885	1003.465	-221.530	570.709	1006.491	-311.099	716.452	482.099	-142.530	705.073	487.099	-422.135	689.600	499.530	-258.090	689.817	491.346	-314.752	623.270	72.101	-141.357	651.518	68.599	-397.207	621.738	70.157	-209.812	663.450	75.272	-328.732	580.266	45.602	-190.194	609.388	45.177	-355.816	696.536	1391.117	-282.247	734.169	1189.744	-289.181	609.273	1462.030	-283.817	713.692	1390.653	-201.283	704.459	1389.064	-356.735	745.378	42.768	-183.358	783.482	42.056	-373.248	757.695	601.165	-70.658	847.572	625.332	-364.996	766.865	659.529	-144.580	771.633	685.125	-399.958	763.341	577.164	-164.717	761.526	598.940	-401.830	654.213	143.693	-78.033	768.062	173.336	-358.126	645.253	201.994	-140.740	702.225	226.008	-366.061
	170	1.41667	711.411	910.213	-274.299	711.843	891.757	-223.373	705.680	894.112	-329.739	703.363	479.124	-200.486	700.650	482.362	-362.968	624.749	69.857	-179.256	655.728	68.613	-357.923	778.578	996.366	-278.311	784.736	994.013	-172.005	772.419	998.719	-384.618	578.958	1003.514	-221.467	570.777	1006.510	-311.047	716.499	482.069	-142.529	705.103	487.081	-422.113	689.750	499.466	-258.172	689.842	491.251	-314.727	623.311	72.099	-141.350	651.558	68.587	-397.202	621.751	70.090	-209.810	663.571	75.209	-328.730	580.257	45.625	-190.195	609.400	45.191	-355.835	696.460	1391.013	-282.308	733.744	1189.576	-289.276	609.388	1462.049	-283.735	713.495	1390.483	-201.369	704.490	1388.979	-356.738	745.394	42.753	-183.364	783.452	42.164	-373.339	757.757	601.156	-70.651	847.595	625.281	-364.978	766.923	659.458	-144.579	771.669	685.018	-399.940	763.434	577.086	-164.751	761.560	598.842	-401.808	654.258	143.664	-78.040	768.085	173.308	-358.079	645.402	201.882	-140.762	702.227	225.895	-366.034
	171	1.42500	711.543	910.345	-274.203	711.781	891.769	-223.410	705.664	894.121	-329.778	703.395	479.107	-200.477	700.659	482.380	-362.949	624.766	69.896	-179.240	655.755	68.630	-357.916	778.572	996.355	-278.324	784.685	994.004	-172.030	772.459	998.706	-384.618	579.027	1003.579	-221.407	570.848	1006.539	-310.997	716.538	482.060	-142.522	705.116	487.091	-422.095	689.806	499.449	-258.161	689.888	491.190	-314.683	623.332	72.139	-141.333	651.588	68.604	-397.196	621.765	70.090	-209.806	663.650	75.233	-328.715	580.253	45.665	-190.191	609.412	45.222	-355.855	696.701	1391.007	-282.229	734.023	1189.579	-289.255	609.470	1462.100	-283.686	713.974	1390.502	-201.322	704.513	1388.956	-356.699	745.397	42.756	-183.365	783.393	42.344	-373.463	757.807	601.176	-70.634	847.609	625.250	-364.963	766.958	659.425	-144.535	771.688	684.985	-399.870	763.481	577.061	-164.723	761.574	598.799	-401.760	654.285	143.663	-78.040	768.100	173.302	-358.026	645.441	201.866	-140.758	702.202	225.848	-365.961
	172	1.43333	711.678	910.481	-274.103	711.765	891.799	-223.434	705.675	894.153	-329.804	703.421	479.115	-200.463	700.644	482.423	-362.935	624.751	69.970	-179.219	655.764	68.674	-357.908	778.588	996.373	-278.330	784.673	994.020	-172.042	772.502	998.726	-384.619	579.095	1003.647	-221.351	570.924	1006.570	-310.952	716.573	482.075	-142.510	705.104	487.128	-422.081	689.787	499.518	-258.110	689.960	491.185	-314.629	623.322	72.213	-141.312	651.600	68.649	-397.188	621.775	70.156	-209.811	663.662	75.309	-328.701	580.259	45.714	-190.183	609.426	45.263	-355.873	696.921	1391.072	-282.100	734.391	1189.672	-289.136	609.531	1462.144	-283.668	714.426	1390.621	-201.189	704.521	1388.992	-356.644	745.386	42.780	-183.360	783.346	42.517	-373.553	757.844	601.218	-70.611	847.611	625.242	-364.952	766.998	659.435	-144.467	771.672	685.027	-399.801	763.496	577.108	-164.663	761.577	598.831	-401.711	654.288	143.691	-78.034	768.104	173.325	-357.972	645.227	201.983	-140.759	702.170	225.895	-365.891
	173	1.44167	711.780	910.558	-274.004	711.822	891.839	-223.442	705.724	894.201	-329.811	703.447	479.144	-200.448	700.600	482.482	-362.933	624.704	70.064	-179.200	655.750	68.735	-357.898	778.641	996.417	-278.336	784.735	994.057	-172.046	772.548	998.777	-384.626	579.162	1003.702	-221.299	571.006	1006.598	-310.911	716.607	482.106	-142.497	705.068	487.185	-422.078	689.852	499.591	-258.101	689.958	491.264	-314.595	623.279	72.307	-141.293	651.591	68.708	-397.179	621.799	70.265	-209.796	663.592	75.421	-328.685	580.278	45.763	-190.174	609.441	45.312	-355.891	696.331	1391.414	-282.124	733.686	1189.960	-288.148	609.588	1462.190	-283.637	713.191	1391.235	-201.055	704.522	1389.062	-356.616	745.362	42.821	-183.354	783.324	42.637	-373.587	757.873	601.271	-70.590	847.601	625.255	-364.951	767.026	659.457	-144.408	771.677	685.111	-399.769	763.539	577.191	-164.614	761.567	598.902	-401.685	654.271	143.739	-78.027	768.094	173.373	-357.925	644.852	202.204	-140.773	702.190	226.016	-365.868
	174	1.45000	711.851	910.569	-273.910	711.916	891.879	-223.454	705.800	894.252	-329.822	703.478	479.178	-200.437	700.527	482.547	-362.947	624.638	70.150	-179.187	655.717	68.795	-357.888	778.711	996.473	-278.348	784.824	994.102	-172.052	772.599	998.843	-384.645	579.229	1003.734	-221.248	571.096	1006.618	-310.873	716.644	482.141	-142.487	705.007	487.248	-422.092	690.003	499.650	-258.130	689.868	491.432	-314.595	623.217	72.394	-141.280	651.565	68.764	-397.169	621.785	70.372	-209.782	663.482	75.550	-328.680	580.302	45.797	-190.166	609.456	45.361	-355.912	696.218	1391.599	-282.112	733.623	1190.145	-287.830	609.650	1462.233	-283.605	712.946	1391.523	-200.997	704.531	1389.159	-356.607	745.331	42.867	-183.353	783.327	42.686	-373.570	757.899	601.317	-70.582	847.581	625.277	-364.965	767.049	659.511	-144.380	771.713	685.244	-399.762	763.615	577.291	-164.594	761.540	599.013	-401.685	654.243	143.792	-78.024	768.071	173.439	-357.894	644.667	202.351	-140.743	702.234	226.198	-365.885
